<?xml version="1.0" encoding="utf-8" ?><svg xmlns="http://www.w3.org/2000/svg" xmlns:xlink="http://www.w3.org/1999/xlink" width="514" height="767" viewBox="0 0 514 767"><path d="M257.571 21.8974C269.44 22.0809 281.133 25.1651 290.292 32.9598C307.639 47.7235 314.376 70.1887 298.179 88.7114C298.075 92.4106 298.648 98.2901 298.889 102.143L300.437 126.518L304.246 188.778C304.811 198.201 305.992 210.269 306.145 219.463C318.979 214.201 364.945 208.316 380.031 207.943C386.612 208.186 393.338 209.421 399.462 211.868C402.567 213.108 405.464 214.993 408.139 216.921C429.767 232.511 428.288 270.499 402.096 280.464C385.334 286.84 368.086 278.983 361.969 262.109C359.496 255.289 359.536 245.773 367.376 242.826C370.532 241.627 375.779 241.635 378.82 243.238C383.718 245.819 382.176 252.704 383.672 257.082C384.49 259.483 385.886 260.012 388.048 261.034C394.038 260.734 399.151 258.734 401.296 252.544C404.412 243.551 398.348 233.596 389.522 230.858C385.933 229.744 382.69 230.012 378.995 230.073C361.928 229.89 345.048 233.518 328.353 236.647C325.319 237.218 316.82 238.902 314.314 240.164C313.521 252.515 314.043 270.762 314.042 283.489L314.039 363.117L314.04 460.046C314.041 476.843 313.526 496.557 314.247 513.065C332.182 525.226 352.377 530.732 374.075 528.492C405.074 525.293 430.385 505.41 447.982 480.729C450.335 477.429 452.513 473.796 455.072 470.659L455.378 470.288C423.607 446.459 449.292 399.085 485.738 412.59C502.171 418.678 510.682 438.948 503.689 454.966C498.764 466.248 493.439 469.819 482.552 474.454C483.348 480.937 482.929 497.849 482.928 505.101L482.94 564.563L482.962 621.873C482.963 629.071 483.385 645.219 482.369 651.37C508.635 660.669 504.688 704.419 478.182 710.915C468.347 713.325 456.191 712.646 446.028 712.643L404.901 712.635L336.888 712.647C324.502 712.648 309.904 712.99 297.706 712.413C288.298 723.846 277.203 734.988 267.465 746.23C265.109 748.949 262.809 750.022 259.441 751.049C257.314 751.276 254.466 751.066 252.677 749.694C246.056 744.618 241.067 737.815 235.325 731.758C229.419 725.528 224.015 718.593 217.987 712.452C208.272 713.021 195.037 712.659 185.124 712.658L125.542 712.658L76.0867 712.658C64.1768 712.656 49.1857 713.346 37.7728 710.977C31.3787 709.649 23.7104 702.715 20.377 696.985C15.7931 689.107 14.7096 679.818 17.0499 671.029C19.7233 660.99 25.2064 656.268 33.7798 651.38C32.9384 645.209 33.3858 627.568 33.3878 620.296L33.3828 558.923L33.3515 503.48C33.3353 497.435 32.9279 479.943 33.7917 474.686C1.3575 464.414 2.75915 420.112 34.5224 411.218C54.463 405.635 75.8562 421.242 75.2019 442.584C74.749 457.358 70.2633 461.13 60.6872 470.995C62.8082 473.169 65.2605 477.135 67.0807 479.737C98.9716 525.326 153.31 545.609 202.3 512.777C201.996 490.235 202.227 467.15 202.229 444.565L202.236 319.374L202.232 267.878C202.226 262.044 201.847 244.751 202.897 239.866C185.534 234.753 163.62 231.956 145.553 230.241C138.041 229.527 125.236 229.332 119.569 234.969C109.931 244.555 112.364 260.643 127.992 261.122C129.243 260.155 131.544 257.812 132.923 256.583C133.18 252.459 132.455 245.37 136.617 243.337C147.619 237.964 157.193 246.707 154.855 257.98C148.87 286.836 113.019 291.309 97.8649 267.221C92.4842 258.668 92.1136 247.827 93.9946 238.094C97.7965 220.765 114.134 209.668 131.117 208.163C137.068 207.531 143.088 208.212 149.03 208.707C169.669 210.425 189.965 214.343 210.063 219.147C210.095 207.81 211.151 196.496 211.849 185.189L216.192 119.151C216.663 111.774 218.217 96.5387 218.07 89.4916C203.783 77.7912 207.056 54.9824 217.061 41.6045C227.51 27.6344 240.645 22.3053 257.571 21.8974ZM53.158 495.367L53.1504 648.26C61.4799 647.811 71.385 648.024 79.8265 648.024L123.711 648.027L259.06 648.017L395.651 648.025L439.204 648.025C445.866 648.026 456.55 647.724 462.933 648.225C463.7 612.499 463.073 574.535 463.065 538.604L463.015 511.293C462.971 506.251 462.516 500.269 463.071 495.404C457.581 501.041 453.054 508.167 447.338 514.033C403.681 558.827 335.771 563.004 289.42 519.799C277.749 508.921 268.815 497.513 261.403 483.278C260.544 481.628 259.055 477.38 257.764 476.484C255.134 483.532 252.212 488.339 248.078 494.666C235.138 514.472 217.383 530.868 195.597 540.541C169.58 552.092 141.437 553.439 114.623 543.482C93.3387 535.577 73.6208 521.564 59.2679 503.951C57.6572 501.975 54.315 497.543 53.158 495.367ZM470.578 691.022C477.558 688.32 479.325 684.504 479.008 677.468C473.111 668.158 468.985 670.023 458.871 670.053L437.436 670.113L355.573 670.096L148.338 670.104L79.876 670.096C69.4432 670.092 56.0178 669.659 45.9553 670.102C35.9168 672.646 33.6085 684.33 42.697 689.624C43.6939 690.205 45.4904 690.772 46.6089 690.792C58.31 691.001 70.0332 690.933 81.7364 690.934L149.442 690.933L363.071 690.926L433.247 690.924C445.102 690.923 458.882 690.566 470.578 691.022ZM223.444 405.922C227.167 399.647 231.782 396.641 237.638 392.837C241.825 390.638 244.649 389.955 249.166 388.897L249.035 289.415C244.787 285.318 239.591 281.411 235.169 277.38C233.593 275.944 224.419 266.999 223.421 266.673C224.018 271.604 223.706 280.69 223.7 286.044L223.676 320.891L223.686 374.448C223.688 384.446 223.961 396.075 223.444 405.922ZM267.517 288.175C267.977 302.666 267.793 317.26 267.791 331.775C267.788 349.201 267.999 366.693 267.53 384.113C267.488 385.69 267.405 387.342 267.149 388.898C271.484 390.236 274.907 391.122 278.872 393.349C286.395 397.88 286.771 399.296 292.955 405.17C292.654 402.72 292.754 398.307 292.659 396.404C291.918 381.415 293.892 268.937 292.021 266.557C288.352 270.963 272.435 285.6 267.517 288.175ZM260.919 451.717C272.629 450.099 280.773 439.248 279.052 427.556C277.331 415.865 266.406 407.819 254.726 409.64C243.19 411.44 235.26 422.199 236.96 433.747C238.659 445.295 249.353 453.316 260.919 451.717ZM263.861 718.924C266.044 716.24 267.187 714.833 269.667 712.431L269.84 712.266C265.006 712.863 251.142 712.743 246.038 712.248C247.496 714.179 248.381 714.587 250.042 716.249C252.85 719.06 255.422 721.848 257.91 724.943C260.102 721.913 260.698 721.018 263.861 718.924ZM232.18 182.284C234.454 180.133 235.919 178.619 237.985 176.268C240.071 174.167 242.253 171.853 244.526 169.98C242.675 168.351 234.853 160.303 233.845 159.707C233.582 163.962 233.135 177.561 232.494 180.684L232.18 182.284ZM227.688 246.071C228.522 247.885 244.028 260.89 246.541 263.871C249.087 266.89 255.243 270.691 258.539 275.224C263.513 269.232 270.313 263.311 276.257 258.168C280.758 254.094 284.224 250.302 289.007 246.118C269.02 252.346 247.69 251.884 227.688 246.071ZM287.052 68.5725C287.151 54.1689 274.386 43.4913 260.239 43.0558C257.88 42.9831 255.186 43.0083 252.834 43.1221C238.147 47.1287 231.441 53.6354 229.135 68.6062L264.586 68.5014L287.052 68.5725ZM271.334 170.393C274.217 172.364 276.295 174.832 278.83 177.213L283.563 182.366C282.762 178.933 282.236 161.376 281.512 160.575C278.548 163.777 274.56 167.353 271.334 170.393ZM257.855 100.341C259.533 98.5179 261.364 96.4328 263.091 94.6916C264.958 92.6831 265.793 91.7928 267.996 90.1191C262.888 90.3015 257.767 90.5251 252.656 90.3822C250.797 90.3303 249.295 89.9602 247.546 89.8767C248.405 91.2797 255.937 98.1431 257.855 100.341ZM237.108 105.784C237.111 110.689 237.287 115.599 236.497 120.439L240.875 115.969C242.003 114.858 243.173 113.646 244.386 112.643C242.867 111.386 237.69 106.089 237.108 105.784ZM271.82 113.13C273.486 114.947 275.108 116.735 276.856 118.476L280.149 121.683C279.613 120.179 279.344 119.377 279.06 117.835C278.681 115.772 279.445 107.275 278.722 106.018L278.056 105.823C276.146 108.548 274.072 110.692 271.82 113.13ZM284.521 215.607C282.471 218.475 280.102 221.255 277.45 223.608C276.229 224.691 274.197 225.475 273.763 226.56L274.308 226.912C277.989 226.036 281.926 225.373 285.666 224.684C285.486 222.832 285.249 216.585 284.521 215.607ZM257.896 183.715C254.816 186.826 244.567 197.656 241.553 199.311C243.873 201.298 246.077 203.277 248.206 205.292C250.14 207.122 256.285 214.138 257.931 215.132C260.093 212.755 272.3 200.692 274.418 199.359C271.179 196.635 260.118 184.806 257.896 183.715ZM230.161 224.879C233.912 225.167 238.568 225.912 242.149 227.041C240.807 224.576 233.139 217.418 230.722 215.792C230.97 219.051 230.62 221.658 230.161 224.879ZM273.76 141.231C269.383 136.743 264.543 132.742 260.081 128.339C259.593 127.857 258.227 126.411 257.711 126.082C254.838 129.803 245.514 138.897 241.598 141.534C244.292 143.107 255.458 154.007 258.096 156.597C260.853 153.12 270.093 144.259 273.76 141.231ZM223.354 455.539C224.047 464.08 223.516 473.275 223.613 481.85C223.634 483.698 223.337 489.801 223.488 491.191C225.512 488.489 227.608 485.383 229.619 482.801C233.076 477.573 235.236 473.824 238.135 468.3C234.259 466.085 232.332 464.84 229.151 461.57C228.441 460.841 223.611 455.677 223.354 455.539ZM292.432 454.519C288.972 459.294 283.883 466.513 277.91 468.555C280.656 472.847 283.322 477.813 286.149 482.354C288.401 485.461 290.779 488.589 292.604 491.957C292.702 488.23 293.063 456.211 292.432 454.519ZM470.987 431.023C466.697 432.037 463.289 435.287 462.075 439.522C460.861 443.758 462.029 448.319 465.131 451.45C468.232 454.581 472.784 455.793 477.032 454.62C482.323 453.16 485.984 448.344 485.974 442.858C485.965 437.371 482.288 432.568 476.992 431.125C475.03 430.591 472.966 430.556 470.987 431.023ZM40.2944 430.918C35.9778 431.79 32.4659 434.919 31.1051 439.105C29.7444 443.292 30.746 447.887 33.726 451.128C36.706 454.369 41.2018 455.754 45.4897 454.751C51.9801 453.232 56.0503 446.788 54.631 440.277C53.2118 433.766 46.8283 429.599 40.2944 430.918Z"/><path d="M253.459 537.139C262.342 536.769 266.212 537.098 274.331 541.892C283.738 547.545 289.734 558.942 292.198 569.311C298.13 594.277 291.501 629.053 262.553 635.825C217.385 639.424 211.068 569.7 237.368 545.774C243.054 540.602 246.254 539.088 253.459 537.139ZM260.315 615.421C275.245 610.303 276.335 583.357 271.692 570.867C269.548 565.101 267.33 562.413 262.963 558.396C260.385 557.842 258.34 557.47 255.682 557.643C235.098 564.739 238.26 619.57 260.315 615.421Z"/><path d="M377.012 569.759C390.29 569.306 401.468 579.602 402.1 592.869C402.733 606.135 392.585 617.447 379.324 618.259C370.585 618.794 362.234 614.585 357.467 607.243C352.7 599.902 352.255 590.564 356.302 582.802C360.349 575.04 368.261 570.057 377.012 569.759Z"/><path d="M133.587 570.319C146.775 567.789 159.508 576.454 161.992 589.646C164.475 602.838 155.763 615.537 142.557 617.973C129.418 620.396 116.792 611.74 114.321 598.614C111.85 585.487 120.465 572.835 133.587 570.319Z"/></svg>