<!-- created by svgstack.com | Attribution is required. --><svg width="100" height="100" viewBox="0 0 100 100" fill="none" xmlns="http://www.w3.org/2000/svg"><path d="M75 16.6667L24.9917 16.6792C24.3209 16.6792 23.6417 16.7001 22.9542 16.7626C12.1209 17.7959 4.16669 27.5126 4.16669 38.3959V75.0001C4.16669 79.6042 7.89585 83.3334 12.5 83.3334H87.5C92.1042 83.3334 95.8334 79.6042 95.8334 75.0001V37.5001C95.8334 25.9959 86.5042 16.6667 75 16.6667Z" fill="url(#paint0_linear_2019_357)"/><path d="M75 18.7501C85.3375 18.7501 93.75 27.1626 93.75 37.5001V75.0001C93.75 78.4459 90.9459 81.2501 87.5 81.2501H12.5C9.05419 81.2501 6.25002 78.4459 6.25002 75.0001V38.3959C6.25002 28.3334 13.675 19.7417 23.15 18.8376C23.7709 18.7792 24.3834 18.7626 24.9875 18.7626L75 18.7501ZM75 16.6667L24.9917 16.6792C24.3209 16.6792 23.6417 16.7001 22.9542 16.7626C12.1209 17.7959 4.16669 27.5126 4.16669 38.3959V75.0001C4.16669 79.6042 7.89585 83.3334 12.5 83.3334H87.5C92.1042 83.3334 95.8334 79.6042 95.8334 75.0001V37.5001C95.8334 25.9959 86.5042 16.6667 75 16.6667Z" fill="url(#paint1_linear_2019_357)"/><path d="M83.3333 41.6667H62.5C60.2 41.6667 58.3333 43.5334 58.3333 45.8334C58.3333 48.1334 60.2 50.0001 62.5 50.0001H70.8333V58.3334C70.8333 60.6334 72.7 62.5001 75 62.5001H83.3333C85.6333 62.5001 87.5 60.6334 87.5 58.3334V45.8334C87.5 43.5334 85.6333 41.6667 83.3333 41.6667Z" fill="url(#paint2_linear_2019_357)"/><path d="M22.9542 16.7626C12.1209 17.7959 4.16669 27.5126 4.16669 38.3959V75.0001C4.16669 79.6042 7.89585 83.3334 12.5 83.3334H37.5C42.1042 83.3334 45.8334 79.6042 45.8334 75.0001V37.5001C45.8334 25.3209 35.3792 15.5792 22.9542 16.7626ZM29.1667 41.6667H20.8334C18.5334 41.6667 16.6667 39.8001 16.6667 37.5001C16.6667 35.2001 18.5334 33.3334 20.8334 33.3334H29.1667C31.4667 33.3334 33.3334 35.2001 33.3334 37.5001C33.3334 39.8001 31.4667 41.6667 29.1667 41.6667Z" fill="url(#paint3_linear_2019_357)"/><defs><linearGradient id="paint0_linear_2019_357" x1="14.8142" y1="18.4751" x2="85.3121" y2="88.973" gradientUnits="userSpaceOnUse"><stop stop-color="white" stop-opacity="0.6"/><stop offset="1" stop-color="white" stop-opacity="0.3"/></linearGradient><linearGradient id="paint1_linear_2019_357" x1="14.8142" y1="18.4751" x2="85.3121" y2="88.973" gradientUnits="userSpaceOnUse"><stop stop-color="white" stop-opacity="0.6"/><stop offset="0.4927" stop-color="white" stop-opacity="0"/><stop offset="0.9971" stop-color="white" stop-opacity="0.3"/></linearGradient><linearGradient id="paint2_linear_2019_357" x1="64.7621" y1="37.6788" x2="87.3212" y2="60.238" gradientUnits="userSpaceOnUse"><stop stop-color="white" stop-opacity="0.7"/><stop offset="0.5188" stop-color="white" stop-opacity="0.45"/><stop offset="0.9998" stop-color="white" stop-opacity="0.55"/></linearGradient><linearGradient id="paint3_linear_2019_357" x1="2.31419" y1="30.9755" x2="47.8121" y2="76.4734" gradientUnits="userSpaceOnUse"><stop stop-color="white" stop-opacity="0.7"/><stop offset="0.5188" stop-color="white" stop-opacity="0.45"/><stop offset="0.9998" stop-color="white" stop-opacity="0.55"/></linearGradient></defs></svg> 