<!-- created by svgstack.com | Attribution is required. --><svg width="100" height="100" viewBox="0 0 100 100" fill="none" xmlns="http://www.w3.org/2000/svg"><path d="M75 87.5H25C18.0958 87.5 12.5 81.9042 12.5 75V36.5209C12.5 31.9792 14.9625 27.8 18.9292 25.5958L43.9292 11.7083C47.7042 9.61252 52.2958 9.61252 56.0708 11.7083L81.0708 25.5958C85.0375 27.8 87.5 31.9834 87.5 36.5209V75C87.5 81.9042 81.9042 87.5 75 87.5Z" fill="url(#paint0_linear_2019_306)"/><path d="M50 12.2166C51.7667 12.2166 53.5167 12.6708 55.0583 13.5291L80.0583 27.4166C83.3625 29.25 85.4167 32.7416 85.4167 36.5208V75C85.4167 80.7416 80.7417 85.4166 75 85.4166H25C19.2542 85.4166 14.5833 80.7416 14.5833 75V36.5208C14.5833 32.7416 16.6375 29.25 19.9417 27.4166L44.9417 13.5291C46.4833 12.6708 48.2333 12.2166 50 12.2166ZM50 10.1333C47.9083 10.1333 45.8167 10.6583 43.9292 11.7083L18.9292 25.5958C14.9625 27.8 12.5 31.9833 12.5 36.5208V75C12.5 81.9041 18.0958 87.5 25 87.5H75C81.9042 87.5 87.5 81.9041 87.5 75V36.5208C87.5 31.9791 85.0375 27.8 81.0708 25.5958L56.0708 11.7083C54.1833 10.6583 52.0917 10.1333 50 10.1333Z" fill="url(#paint1_linear_2019_306)"/><path d="M62.5 87.5001H37.5V62.5001C37.5 57.8959 41.2292 54.1667 45.8333 54.1667H54.1667C58.7708 54.1667 62.5 57.8959 62.5 62.5001V87.5001Z" fill="url(#paint2_linear_2019_306)"/><defs><linearGradient id="paint0_linear_2019_306" x1="19.0417" y1="24.8021" x2="80.9583" y2="86.7192" gradientUnits="userSpaceOnUse"><stop stop-color="white" stop-opacity="0.6"/><stop offset="1" stop-color="white" stop-opacity="0.3"/></linearGradient><linearGradient id="paint1_linear_2019_306" x1="19.0417" y1="24.8021" x2="80.9583" y2="86.7191" gradientUnits="userSpaceOnUse"><stop stop-color="white" stop-opacity="0.6"/><stop offset="0.4927" stop-color="white" stop-opacity="0"/><stop offset="0.9971" stop-color="white" stop-opacity="0.3"/></linearGradient><linearGradient id="paint2_linear_2019_306" x1="36.6371" y1="59.9113" x2="63.3629" y2="86.6372" gradientUnits="userSpaceOnUse"><stop stop-color="white" stop-opacity="0.7"/><stop offset="0.5188" stop-color="white" stop-opacity="0.45"/><stop offset="0.9998" stop-color="white" stop-opacity="0.55"/></linearGradient></defs></svg> 