<!-- created by svgstack.com | Attribution is required. --><svg width="100" height="100" viewBox="0 0 100 100" fill="none" xmlns="http://www.w3.org/2000/svg"><path d="M50 49.9999C61.5059 49.9999 70.8333 40.6725 70.8333 29.1666C70.8333 17.6607 61.5059 8.33325 50 8.33325C38.4941 8.33325 29.1667 17.6607 29.1667 29.1666C29.1667 40.6725 38.4941 49.9999 50 49.9999Z" fill="url(#paint0_linear_2019_573)"/><path d="M50 10.4166C60.3375 10.4166 68.75 18.8291 68.75 29.1666C68.75 39.5041 60.3375 47.9166 50 47.9166C39.6625 47.9166 31.25 39.5041 31.25 29.1666C31.25 18.8291 39.6625 10.4166 50 10.4166ZM50 8.33325C38.4958 8.33325 29.1667 17.6624 29.1667 29.1666C29.1667 40.6708 38.4958 49.9999 50 49.9999C61.5042 49.9999 70.8333 40.6708 70.8333 29.1666C70.8333 17.6624 61.5042 8.33325 50 8.33325Z" fill="url(#paint1_linear_2019_573)"/><path d="M75 62.5H25C18.0958 62.5 12.5 68.0958 12.5 75C12.5 81.9042 18.0958 87.5 25 87.5H75C81.9042 87.5 87.5 81.9042 87.5 75C87.5 68.0958 81.9042 62.5 75 62.5Z" fill="url(#paint2_linear_2019_573)"/><path d="M75 64.5833C80.7417 64.5833 85.4167 69.2542 85.4167 75C85.4167 80.7458 80.7417 85.4167 75 85.4167H25C19.2542 85.4167 14.5833 80.7458 14.5833 75C14.5833 69.2542 19.2542 64.5833 25 64.5833H75ZM75 62.5H25C18.0958 62.5 12.5 68.0958 12.5 75C12.5 81.9042 18.0958 87.5 25 87.5H75C81.9042 87.5 87.5 81.9042 87.5 75C87.5 68.0958 81.9042 62.5 75 62.5Z" fill="url(#paint3_linear_2019_573)"/><defs><linearGradient id="paint0_linear_2019_573" x1="35.2687" y1="14.4353" x2="64.7312" y2="43.8978" gradientUnits="userSpaceOnUse"><stop stop-color="white" stop-opacity="0.6"/><stop offset="1" stop-color="white" stop-opacity="0.3"/></linearGradient><linearGradient id="paint1_linear_2019_573" x1="29.1667" y1="29.1666" x2="70.8333" y2="29.1666" gradientUnits="userSpaceOnUse"><stop stop-color="white" stop-opacity="0.6"/><stop offset="0.4927" stop-color="white" stop-opacity="0"/><stop offset="0.9971" stop-color="white" stop-opacity="0.3"/></linearGradient><linearGradient id="paint2_linear_2019_573" x1="28.6612" y1="53.6613" x2="71.3387" y2="96.3388" gradientUnits="userSpaceOnUse"><stop stop-color="white" stop-opacity="0.6"/><stop offset="1" stop-color="white" stop-opacity="0.3"/></linearGradient><linearGradient id="paint3_linear_2019_573" x1="12.5" y1="75" x2="87.5" y2="75" gradientUnits="userSpaceOnUse"><stop stop-color="white" stop-opacity="0.6"/><stop offset="0.4927" stop-color="white" stop-opacity="0"/><stop offset="0.9971" stop-color="white" stop-opacity="0.3"/></linearGradient></defs></svg> 